<svg xmlns="http://www.w3.org/2000/svg" width="256" height="256" viewBox="0 0 256 256" role="img" aria-labelledby="title desc">
  <title id="title">Logo luna brillante</title>
  <desc id="desc">Luna creciente brillante sobre cielo nocturno con estrellas</desc>
  <defs>
    <linearGradient id="bg" x1="0" y1="0" x2="1" y2="1">
      <stop offset="0" stop-color="#0b1029"/>
      <stop offset="1" stop-color="#173d9a"/>
    </linearGradient>
    <radialGradient id="halo" cx="55%" cy="45%" r="45%">
      <stop offset="0" stop-color="#fff59d" stop-opacity="0.95"/>
      <stop offset="1" stop-color="#fff59d" stop-opacity="0"/>
    </radialGradient>
    <linearGradient id="moon" x1="0" y1="0" x2="0.95" y2="1">
      <stop offset="0" stop-color="#fffde7"/>
      <stop offset="1" stop-color="#ffe082"/>
    </linearGradient>
  </defs>

  <rect x="0" y="0" width="256" height="256" rx="56" fill="url(#bg)"/>
  <circle cx="140" cy="120" r="84" fill="url(#halo)"/>

  <circle cx="176" cy="70" r="5" fill="#ffffff" opacity="0.95"/>
  <circle cx="202" cy="102" r="3" fill="#ffffff" opacity="0.9"/>
  <circle cx="154" cy="38" r="3" fill="#ffffff" opacity="0.9"/>
  <circle cx="60" cy="50" r="4" fill="#ffffff" opacity="0.88"/>
  <circle cx="94" cy="84" r="2" fill="#ffffff" opacity="0.86"/>

  <path d="M152 44c-36 0-66 30-66 66s30 66 66 66c14 0 27-4 38-11-8 2-16 4-25 4-44 0-79-36-79-79 0-16 5-31 14-43-15 11-25 30-25 52 0 36 29 65 65 65s65-29 65-65-29-65-65-65c-12 0-24 3-34 10 10-3 20-4 31-4z" fill="url(#moon)"/>
</svg>
