<svg xmlns="http://www.w3.org/2000/svg" width="256" height="256" viewBox="0 0 256 256" role="img" aria-labelledby="title desc">
  <title id="title">Logo luna</title>
  <desc id="desc">Luna creciente sobre cielo nocturno con estrellas</desc>
  <defs>
    <linearGradient id="bg" x1="0" y1="0" x2="1" y2="1">
      <stop offset="0" stop-color="#0f172a"/>
      <stop offset="1" stop-color="#1e3a8a"/>
    </linearGradient>
    <linearGradient id="moon" x1="0" y1="0" x2="0.9" y2="1">
      <stop offset="0" stop-color="#fef9c3"/>
      <stop offset="1" stop-color="#fde68a"/>
    </linearGradient>
  </defs>

  <rect x="0" y="0" width="256" height="256" rx="56" fill="url(#bg)"/>

  <circle cx="178" cy="76" r="5" fill="#fff" opacity="0.9"/>
  <circle cx="196" cy="104" r="3" fill="#fff" opacity="0.85"/>
  <circle cx="156" cy="38" r="3" fill="#fff" opacity="0.8"/>
  <circle cx="56" cy="48" r="4" fill="#fff" opacity="0.85"/>

  <path d="M150 48c-34 0-62 28-62 62s28 62 62 62c13 0 25-4 35-11-7 2-15 3-23 3-41 0-74-33-74-74 0-16 5-30 13-42-15 11-25 29-25 50 0 35 28 63 63 63s63-28 63-63-28-63-63-63c-12 0-23 3-33 9 9-3 19-4 29-4z" fill="url(#moon)"/>
</svg>
